<mxfile host="app.diagrams.net" agent="Mozilla/5.0 (Windows NT 10.0; Win64; x64) AppleWebKit/537.36 (KHTML, like Gecko) Chrome/135.0.0.0 Safari/537.36" version="26.2.14">
  <diagram name="Page-1" id="tt5-iZ1k4Pi5rtq3LBpq">
    <mxGraphModel dx="918" dy="498" grid="1" gridSize="10" guides="1" tooltips="1" connect="1" arrows="1" fold="1" page="1" pageScale="1" pageWidth="1100" pageHeight="850" math="0" shadow="0">
      <root>
        <mxCell id="0" />
        <mxCell id="1" parent="0" />
        <mxCell id="3IxSadgFBgPHcJ0YZHfR-29" value="Brand&lt;div&gt;brand_id(PK)&lt;/div&gt;&lt;div&gt;brand_name&lt;/div&gt;&lt;div&gt;&lt;br&gt;&lt;/div&gt;" style="rounded=0;whiteSpace=wrap;html=1;" vertex="1" parent="1">
          <mxGeometry x="70" y="20" width="120" height="60" as="geometry" />
        </mxCell>
        <mxCell id="3IxSadgFBgPHcJ0YZHfR-30" value="Product _category&lt;div&gt;category_id(PK)&lt;/div&gt;&lt;div&gt;Category_name&lt;/div&gt;" style="rounded=0;whiteSpace=wrap;html=1;" vertex="1" parent="1">
          <mxGeometry x="70" y="100" width="120" height="60" as="geometry" />
        </mxCell>
        <mxCell id="3IxSadgFBgPHcJ0YZHfR-31" value="&lt;span style=&quot;white-space: pre;&quot;&gt;&#x9;&lt;/span&gt;Product&lt;div&gt;Product _id(PK)&lt;div&gt;name&lt;/div&gt;&lt;div&gt;brand_id(Fk)&lt;/div&gt;&lt;div&gt;category_id(FK)&lt;/div&gt;&lt;div&gt;base_price&lt;/div&gt;&lt;/div&gt;" style="rounded=0;whiteSpace=wrap;html=1;" vertex="1" parent="1">
          <mxGeometry x="390" y="40" width="120" height="90" as="geometry" />
        </mxCell>
        <mxCell id="3IxSadgFBgPHcJ0YZHfR-44" style="edgeStyle=orthogonalEdgeStyle;rounded=0;orthogonalLoop=1;jettySize=auto;html=1;exitX=0;exitY=0.25;exitDx=0;exitDy=0;" edge="1" parent="1" source="3IxSadgFBgPHcJ0YZHfR-32">
          <mxGeometry relative="1" as="geometry">
            <mxPoint x="710" y="70" as="targetPoint" />
          </mxGeometry>
        </mxCell>
        <mxCell id="3IxSadgFBgPHcJ0YZHfR-32" value="Product_image&lt;div&gt;image_id(PK)&lt;/div&gt;&lt;div&gt;product_id(FK)&lt;/div&gt;&lt;div&gt;image_url&lt;/div&gt;" style="rounded=0;whiteSpace=wrap;html=1;" vertex="1" parent="1">
          <mxGeometry x="700" y="40" width="120" height="90" as="geometry" />
        </mxCell>
        <mxCell id="3IxSadgFBgPHcJ0YZHfR-33" value="&lt;div&gt;&lt;br&gt;&lt;/div&gt;&lt;div&gt;Store&lt;/div&gt;&lt;div&gt;store_id(PK)&lt;/div&gt;&lt;div&gt;store_name&lt;/div&gt;&lt;div&gt;location&lt;/div&gt;" style="rounded=0;whiteSpace=wrap;html=1;" vertex="1" parent="1">
          <mxGeometry x="60" y="190" width="120" height="100" as="geometry" />
        </mxCell>
        <mxCell id="3IxSadgFBgPHcJ0YZHfR-34" value="Stock&lt;div&gt;stock_id(PK)&lt;/div&gt;&lt;div&gt;product_id(FK)&lt;/div&gt;&lt;div&gt;store_id(FK)&lt;/div&gt;&lt;div&gt;Quantity&lt;/div&gt;" style="rounded=0;whiteSpace=wrap;html=1;" vertex="1" parent="1">
          <mxGeometry x="270" y="200" width="120" height="90" as="geometry" />
        </mxCell>
        <mxCell id="3IxSadgFBgPHcJ0YZHfR-37" value="Customer&lt;div&gt;&amp;nbsp;customer_id(PK)&lt;/div&gt;&lt;div&gt;first_name&lt;/div&gt;&lt;div&gt;last_name&lt;/div&gt;&lt;div&gt;email&lt;/div&gt;&lt;div&gt;phone&lt;/div&gt;" style="rounded=0;whiteSpace=wrap;html=1;" vertex="1" parent="1">
          <mxGeometry x="660" y="360" width="160" height="90" as="geometry" />
        </mxCell>
        <mxCell id="3IxSadgFBgPHcJ0YZHfR-39" value="Orders&lt;div&gt;&lt;br&gt;&lt;/div&gt;&lt;div&gt;order_id(PK)&lt;/div&gt;&lt;div&gt;customer_id(FK)&lt;/div&gt;&lt;div&gt;order_date&lt;/div&gt;&lt;div&gt;total_amount&lt;/div&gt;" style="rounded=0;whiteSpace=wrap;html=1;" vertex="1" parent="1">
          <mxGeometry x="440" y="350" width="120" height="110" as="geometry" />
        </mxCell>
        <mxCell id="3IxSadgFBgPHcJ0YZHfR-40" value="Order_item&lt;div&gt;order_item_id(PK)&lt;/div&gt;&lt;div&gt;order_id(Fk)&lt;/div&gt;&lt;div&gt;quantity&lt;/div&gt;&lt;div&gt;price_each&lt;/div&gt;" style="whiteSpace=wrap;html=1;aspect=fixed;" vertex="1" parent="1">
          <mxGeometry x="450" y="180" width="100" height="100" as="geometry" />
        </mxCell>
        <mxCell id="3IxSadgFBgPHcJ0YZHfR-41" value="Payment&lt;div&gt;payment_id(PK)&lt;/div&gt;&lt;div&gt;order_id(FK)&lt;/div&gt;&lt;div&gt;payment_date&lt;/div&gt;&lt;div&gt;amount&lt;/div&gt;&lt;div&gt;payment_method&lt;/div&gt;" style="rounded=0;whiteSpace=wrap;html=1;" vertex="1" parent="1">
          <mxGeometry x="700" y="195" width="120" height="100" as="geometry" />
        </mxCell>
        <mxCell id="3IxSadgFBgPHcJ0YZHfR-47" value="" style="endArrow=classic;html=1;rounded=0;exitX=-0.017;exitY=0.578;exitDx=0;exitDy=0;exitPerimeter=0;entryX=1;entryY=0.25;entryDx=0;entryDy=0;" edge="1" parent="1" source="3IxSadgFBgPHcJ0YZHfR-31" target="3IxSadgFBgPHcJ0YZHfR-29">
          <mxGeometry width="50" height="50" relative="1" as="geometry">
            <mxPoint x="370" y="110" as="sourcePoint" />
            <mxPoint x="360" y="90" as="targetPoint" />
            <Array as="points" />
          </mxGeometry>
        </mxCell>
        <mxCell id="3IxSadgFBgPHcJ0YZHfR-49" value="" style="endArrow=classic;html=1;rounded=0;exitX=0;exitY=0.75;exitDx=0;exitDy=0;entryX=1;entryY=0.25;entryDx=0;entryDy=0;" edge="1" parent="1" source="3IxSadgFBgPHcJ0YZHfR-31" target="3IxSadgFBgPHcJ0YZHfR-30">
          <mxGeometry width="50" height="50" relative="1" as="geometry">
            <mxPoint x="450" y="110" as="sourcePoint" />
            <mxPoint x="350" y="120" as="targetPoint" />
            <Array as="points" />
          </mxGeometry>
        </mxCell>
        <mxCell id="3IxSadgFBgPHcJ0YZHfR-50" value="" style="endArrow=classic;html=1;rounded=0;exitX=0;exitY=0.25;exitDx=0;exitDy=0;entryX=0.967;entryY=0.089;entryDx=0;entryDy=0;entryPerimeter=0;" edge="1" parent="1" source="3IxSadgFBgPHcJ0YZHfR-32" target="3IxSadgFBgPHcJ0YZHfR-31">
          <mxGeometry width="50" height="50" relative="1" as="geometry">
            <mxPoint x="640" y="80" as="sourcePoint" />
            <mxPoint x="530" y="80" as="targetPoint" />
          </mxGeometry>
        </mxCell>
        <mxCell id="3IxSadgFBgPHcJ0YZHfR-63" value="" style="endArrow=classic;html=1;rounded=0;entryX=1;entryY=0.5;entryDx=0;entryDy=0;exitX=0.008;exitY=0.433;exitDx=0;exitDy=0;exitPerimeter=0;" edge="1" parent="1" source="3IxSadgFBgPHcJ0YZHfR-34" target="3IxSadgFBgPHcJ0YZHfR-33">
          <mxGeometry width="50" height="50" relative="1" as="geometry">
            <mxPoint x="350" y="240" as="sourcePoint" />
            <mxPoint x="340" y="200" as="targetPoint" />
          </mxGeometry>
        </mxCell>
        <mxCell id="3IxSadgFBgPHcJ0YZHfR-64" value="" style="endArrow=classic;html=1;rounded=0;exitX=0.692;exitY=0;exitDx=0;exitDy=0;exitPerimeter=0;entryX=0.25;entryY=1;entryDx=0;entryDy=0;" edge="1" parent="1" source="3IxSadgFBgPHcJ0YZHfR-34" target="3IxSadgFBgPHcJ0YZHfR-31">
          <mxGeometry width="50" height="50" relative="1" as="geometry">
            <mxPoint x="360" y="190" as="sourcePoint" />
            <mxPoint x="410" y="140" as="targetPoint" />
          </mxGeometry>
        </mxCell>
        <mxCell id="3IxSadgFBgPHcJ0YZHfR-65" value="" style="endArrow=classic;html=1;rounded=0;entryX=0.892;entryY=1;entryDx=0;entryDy=0;entryPerimeter=0;" edge="1" parent="1" target="3IxSadgFBgPHcJ0YZHfR-31">
          <mxGeometry width="50" height="50" relative="1" as="geometry">
            <mxPoint x="497" y="180" as="sourcePoint" />
            <mxPoint x="510" y="130" as="targetPoint" />
          </mxGeometry>
        </mxCell>
        <mxCell id="3IxSadgFBgPHcJ0YZHfR-67" value="" style="endArrow=classic;html=1;rounded=0;entryX=0.394;entryY=-0.025;entryDx=0;entryDy=0;entryPerimeter=0;exitX=0.383;exitY=1.031;exitDx=0;exitDy=0;exitPerimeter=0;" edge="1" parent="1" source="3IxSadgFBgPHcJ0YZHfR-40" target="3IxSadgFBgPHcJ0YZHfR-39">
          <mxGeometry width="50" height="50" relative="1" as="geometry">
            <mxPoint x="480" y="290" as="sourcePoint" />
            <mxPoint x="440" y="340" as="targetPoint" />
          </mxGeometry>
        </mxCell>
        <mxCell id="3IxSadgFBgPHcJ0YZHfR-69" value="" style="endArrow=classic;html=1;rounded=0;exitX=1.025;exitY=0.444;exitDx=0;exitDy=0;exitPerimeter=0;entryX=-0.014;entryY=0.42;entryDx=0;entryDy=0;entryPerimeter=0;" edge="1" parent="1" source="3IxSadgFBgPHcJ0YZHfR-39" target="3IxSadgFBgPHcJ0YZHfR-37">
          <mxGeometry width="50" height="50" relative="1" as="geometry">
            <mxPoint x="570" y="430" as="sourcePoint" />
            <mxPoint x="620" y="380" as="targetPoint" />
          </mxGeometry>
        </mxCell>
        <mxCell id="3IxSadgFBgPHcJ0YZHfR-70" value="" style="endArrow=classic;html=1;rounded=0;entryX=-0.027;entryY=0.375;entryDx=0;entryDy=0;entryPerimeter=0;exitX=-0.027;exitY=0.375;exitDx=0;exitDy=0;exitPerimeter=0;" edge="1" parent="1" source="3IxSadgFBgPHcJ0YZHfR-41">
          <mxGeometry width="50" height="50" relative="1" as="geometry">
            <mxPoint x="610" y="300" as="sourcePoint" />
            <mxPoint x="560" y="350" as="targetPoint" />
          </mxGeometry>
        </mxCell>
      </root>
    </mxGraphModel>
  </diagram>
</mxfile>
